PathFileType	4	(X/Y/Z)	C:/Users/opensim2020/Desktop/walking_exp_matlab/subject02_walking07_straight_04.trc	
DataRate	CameraRate	NumFrames	NumMarkers	Units	OrigDataRate	OrigDataStartFrame	OrigNumFrames	
100.00	100.00	4	50	mm	100.00	2824	207	
Frame#	Time	LFHD			RFHD			LBHD			RBHD			C7			T10			CLAV			STRN			RBAK			LSHO			LUPA			LELB			LFRM			LWRA			LWRB			LFIN			RSHO			RUPA			RELB			RFRM			RWRA			RWRB			RFIN			LASI			RASI			LPSI			RPSI			LTHI			LKNE			LTIB			LANK			LHEE			LTOE			RTHI			RKNE			RTIB			RANK			RHEE			RTOE			*39			*40			*41			*42			*43			*44			*45			*46			*47			*48			*49			
		X1	Y1	Z1	X2	Y2	Z2	X3	Y3	Z3	X4	Y4	Z4	X5	Y5	Z5	X6	Y6	Z6	X7	Y7	Z7	X8	Y8	Z8	X9	Y9	Z9	X10	Y10	Z10	X11	Y11	Z11	X12	Y12	Z12	X13	Y13	Z13	X14	Y14	Z14	X15	Y15	Z15	X16	Y16	Z16	X17	Y17	Z17	X18	Y18	Z18	X19	Y19	Z19	X20	Y20	Z20	X21	Y21	Z21	X22	Y22	Z22	X23	Y23	Z23	X24	Y24	Z24	X25	Y25	Z25	X26	Y26	Z26	X27	Y27	Z27	X28	Y28	Z28	X29	Y29	Z29	X30	Y30	Z30	X31	Y31	Z31	X32	Y32	Z32	X33	Y33	Z33	X34	Y34	Z34	X35	Y35	Z35	X36	Y36	Z36	X37	Y37	Z37	X38	Y38	Z38	X39	Y39	Z39	X40	Y40	Z40	X41	Y41	Z41	X42	Y42	Z42	X43	Y43	Z43	X44	Y44	Z44	X45	Y45	Z45	X46	Y46	Z46	X47	Y47	Z47	X48	Y48	Z48	X49	Y49	Z49	X50	Y50	Z50	

104	1.030	-951.65942	-229.78940	1709.73499	-1090.67554	-202.33980	1684.48047	-915.75391	-93.81937	1654.31482	-1053.44373	-54.51852	1629.62341	-976.07782	-16.92782	1502.56995	-978.03918	30.15365	1225.78162	-979.02185	-159.50099	1437.98730	-989.88477	-214.54494	1267.92969	-1028.69165	45.10047	1322.95679	-806.19891	-105.08847	1485.06665	-707.42853	-159.51089	1303.63135	-679.37958	-229.46686	1180.02539	-684.43829	-338.63641	1098.94409	-738.28406	-459.71408	1065.47546	-701.98615	-437.38614	1028.82520	-705.63068	-500.91568	1010.60504	-1168.07874	-69.66318	1465.47522	-1238.14221	-2.86120	1283.47339	-1258.47974	4.60202	1138.31042	-1285.82043	0.29701	1019.27490	-1277.94299	-27.29528	885.15533	-1301.61499	23.95041	891.70526	-1309.52844	0.93807	821.90405	-847.41077	-189.16312	962.06641	-1102.65515	-199.43373	953.74847	-937.24921	16.70346	1010.09839	-1051.10449	19.67858	1007.79962	-801.62360	-65.04614	660.74036	-830.84521	10.05705	469.89844	-830.46454	124.22823	310.67654	-864.88593	191.79683	95.12022	-916.08539	233.52728	76.24624	-854.03412	45.55947	32.46607	-1187.59937	-186.26422	657.65240	-1149.23132	-255.87553	461.57327	-1160.25854	-272.24127	275.45984	-1133.89746	-320.81989	86.89670	-1075.95618	-310.42078	28.08039	-1158.74866	-480.63077	70.79936	-1027.77197	-123.26162	1784.43494	-3357.35254	2845.90625	1034.08044																											 
105	1.040	-954.14209	-239.10149	1709.11877	-1093.12549	-211.81213	1683.65540	-918.19989	-102.93969	1653.39624	-1055.80054	-64.19404	1628.27258	-978.80084	-26.74412	1501.37830	-980.90277	19.73840	1224.38281	-981.36395	-169.45718	1436.98523	-992.14880	-224.99838	1267.16345	-1031.52014	34.81707	1321.57349	-808.59729	-114.58854	1483.72632	-710.25934	-167.28139	1301.58154	-682.12671	-235.21233	1177.03748	-686.59131	-342.77335	1094.32141	-739.68463	-464.04257	1058.83765	-703.60791	-440.71619	1022.64526	-706.92432	-503.98126	1003.20490	-1170.49634	-79.82111	1464.38367	-1240.33032	-13.40298	1282.16589	-1260.62207	-6.05469	1137.03479	-1287.95837	-10.06166	1018.04016	-1280.32776	-37.05859	883.78510	-1303.79138	13.96922	890.57678	-1311.76917	-8.69808	820.66565	-849.59644	-200.12170	961.03015	-1104.88745	-211.08620	953.39160	-940.47107	5.71109	1008.67114	-1054.16199	8.31411	1006.59784	-803.33002	-74.69463	660.04034	-831.99719	1.31975	469.85431	-831.67255	118.66484	312.81314	-864.83844	190.31889	98.43763	-916.01984	231.81543	80.39700	-853.82513	45.43362	32.39761	-1189.85620	-200.03539	657.53375	-1151.60425	-265.80997	460.29034	-1159.74304	-279.00912	273.24515	-1133.32788	-324.69470	85.43766	-1075.20129	-312.28561	29.80127	-1159.02808	-484.66415	61.90831	-1030.37305	-132.34888	1783.72375	-3360.23145	2845.13232	1033.90271																											 
106	1.050	-956.74030	-248.63428	1708.90747	-1095.59045	-221.44157	1683.34790	-920.99847	-112.85457	1652.68335	-1058.46204	-73.95843	1627.48462	-981.29828	-36.12709	1500.10938	-983.82178	9.36943	1223.64868	-983.68970	-179.47533	1436.26868	-994.43805	-235.30870	1266.78320	-1034.32495	24.48053	1320.46130	-810.94623	-123.98816	1482.62537	-713.04541	-174.76991	1299.74841	-685.08643	-240.75049	1174.02429	-689.05737	-346.55011	1089.21460	-741.23285	-467.72064	1051.58435	-705.23083	-443.30487	1015.80267	-708.06439	-506.25119	995.17432	-1172.96204	-90.15965	1463.31982	-1243.40759	-24.02215	1281.14148	-1262.88086	-16.95825	1135.64563	-1290.29907	-20.73582	1016.93555	-1282.62610	-47.68051	882.70313	-1306.12634	3.55753	889.52637	-1314.12390	-18.87933	819.49463	-851.90521	-211.35951	960.03625	-1107.16895	-222.31784	953.26959	-943.80347	-5.33779	1007.40216	-1057.38916	-3.18467	1005.74677	-805.16193	-84.48609	659.44617	-833.28931	-7.71975	469.93323	-832.76331	112.68678	315.26193	-864.52838	188.51212	102.14949	-915.77710	230.14401	85.29985	-853.64587	45.28814	32.34599	-1192.27100	-212.99323	658.37347	-1154.41223	-275.63730	460.19803	-1158.83826	-286.90765	272.64365	-1135.38599	-330.35760	85.83595	-1076.82385	-315.36966	32.05725	-1160.66943	-489.84464	54.07785	-1032.80811	-141.41617	1782.74341	-3360.29980	2845.19775	1033.93176																											 
107	1.060	-958.96588	-257.86810	1709.48169	-1098.23035	-231.06502	1683.44080	-923.40521	-122.30499	1652.62891	-1061.37708	-83.56614	1627.11926	-984.02863	-45.75752	1499.31946	-986.64960	-1.03421	1223.23193	-986.11310	-189.32339	1436.14490	-996.76367	-245.64749	1266.77502	-1037.44592	14.33601	1320.04517	-813.12360	-133.25893	1481.88416	-716.02881	-182.37354	1297.87512	-688.18549	-246.13242	1171.07129	-691.35883	-349.61340	1084.03955	-742.63171	-470.70596	1043.80554	-706.96954	-445.81662	1008.65070	-709.32990	-507.33380	986.22345	-1175.78638	-100.29883	1462.77454	-1245.86914	-35.02663	1279.97534	-1265.35962	-28.22530	1134.67078	-1292.65320	-31.80254	1015.88690	-1285.14587	-58.63108	881.67017	-1308.38879	-7.29774	888.49994	-1317.01599	-29.51369	818.62836	-854.45941	-222.85379	959.11279	-1109.74329	-233.48715	953.50238	-947.02625	-16.40044	1006.33667	-1060.63953	-14.98009	1005.48938	-807.34967	-95.43479	659.06665	-834.62372	-17.29374	470.24255	-833.91510	106.27072	318.16025	-864.16541	185.96170	106.39824	-915.42780	227.59575	90.46180	-853.46539	45.11011	32.31153	-1194.95508	-224.98730	659.75323	-1157.81982	-286.48889	461.50092	-1163.04895	-295.82816	273.89438	-1138.09009	-335.83112	85.65501	-1079.17505	-317.62076	33.67289	-1161.50452	-493.93091	49.21562	-1035.78455	-150.92075	1782.87769	-3357.31201	2845.88672	1034.17419																											 
